<svg width="20" height="20" viewBox="0 0 20 20" fill="none" xmlns="http://www.w3.org/2000/svg">
<path d="M20 10C20 4.47311 15.5275 0 10 0C4.47311 0 0 4.4725 0 10C0 15.4779 4.43512 20 10 20C15.542 20 20 15.5031 20 10ZM10 1.17188C14.8679 1.17188 18.8281 5.13214 18.8281 10C18.8281 11.7807 18.2985 13.4923 17.3163 14.942C13.3722 10.6995 6.63498 10.6918 2.68372 14.942C1.70151 13.4923 1.17188 11.7807 1.17188 10C1.17188 5.13214 5.13214 1.17188 10 1.17188ZM3.41461 15.8789C6.92139 11.9455 13.0795 11.9464 16.5852 15.8789C13.0667 19.8154 6.93466 19.8166 3.41461 15.8789Z" fill="white"/>
<path d="M10.1821 10.5859C12.1206 10.5859 13.6978 9.00879 13.6978 7.07031V5.89844C13.6978 3.95996 12.1206 2.38281 10.1821 2.38281C8.24365 2.38281 6.6665 3.95996 6.6665 5.89844V7.07031C6.6665 9.00879 8.24365 10.5859 10.1821 10.5859ZM7.83838 5.89844C7.83838 4.60602 8.88971 3.55469 10.1821 3.55469C11.4745 3.55469 12.5259 4.60602 12.5259 5.89844V7.07031C12.5259 8.36273 11.4745 9.41406 10.1821 9.41406C8.88971 9.41406 7.83838 8.36273 7.83838 7.07031V5.89844Z" fill="white"/>
</svg>
