<svg width="28" height="28" viewBox="0 0 28 28" fill="none" xmlns="http://www.w3.org/2000/svg">
<path d="M14 0C6.28041 0 0 6.28041 0 14C0 21.7196 6.28041 28 14 28C21.7196 28 28 21.7196 28 14C27.9994 6.28041 21.7196 0 14 0ZM14 25.7435C7.52454 25.7435 2.25651 20.4754 2.25651 13.9995C2.25651 7.52403 7.52454 2.256 14 2.256C20.4754 2.256 25.7435 7.52454 25.7435 14C25.7435 20.4754 20.4754 25.7435 14 25.7435Z" fill="#5AA1E1"/>
<path d="M18.4627 9.53588L11.9279 16.0712L9.53671 13.6799C9.09637 13.2391 8.38206 13.2391 7.94172 13.6799C7.50087 14.1203 7.50087 14.8345 7.94172 15.275L11.1307 18.4639C11.3509 18.6841 11.6399 18.7946 11.9284 18.7946C12.217 18.7946 12.5055 18.6845 12.7257 18.4639L20.0582 11.1314C20.4985 10.6905 20.4985 9.97673 20.0582 9.53588C19.6173 9.09554 18.9036 9.09554 18.4627 9.53588Z" fill="#5AA1E1"/>
</svg>
